<svg width="110" height="68" viewBox="0 0 110 68" fill="none" xmlns="http://www.w3.org/2000/svg">
<g clip-path="url(#clip0_2148_26425)">
<path d="M30.4465 20.3671C30.2919 20.3671 30.0859 20.3155 29.8283 20.3155C27.9224 20.3155 26.4286 21.5023 26.0165 23.8758V20.6251C26.0188 20.5906 26.0137 20.556 26.0016 20.5237C25.9894 20.4914 25.9705 20.462 25.9461 20.4376C25.9218 20.4132 25.8924 20.3942 25.8602 20.3821C25.8279 20.3699 25.7934 20.3648 25.759 20.3671H22.5138C22.4794 20.3648 22.4449 20.3699 22.4126 20.3821C22.3803 20.3942 22.351 20.4132 22.3266 20.4376C22.3022 20.462 22.2833 20.4914 22.2712 20.5237C22.2591 20.556 22.254 20.5906 22.2562 20.6251V36.5177C22.254 36.5522 22.2591 36.5867 22.2712 36.6191C22.2833 36.6514 22.3022 36.6808 22.3266 36.7052C22.351 36.7296 22.3803 36.7486 22.4126 36.7607C22.4449 36.7729 22.4794 36.778 22.5138 36.7757H25.759C25.7934 36.778 25.8279 36.7729 25.8602 36.7607C25.8924 36.7486 25.9218 36.7296 25.9461 36.7052C25.9705 36.6808 25.9894 36.6514 26.0016 36.6191C26.0137 36.5867 26.0188 36.5522 26.0165 36.5177V29.7066C26.0165 25.8366 27.2013 24.0306 29.9314 24.0306H30.395C30.4699 24.0364 30.5441 24.0127 30.6018 23.9645C30.6595 23.9163 30.6962 23.8475 30.704 23.7726V20.6767C30.704 20.4703 30.601 20.3671 30.4465 20.3671ZM39.0488 19.8511C34.5158 19.8511 31.8373 23.1018 31.8373 28.5714C31.8373 34.0409 34.5158 37.1885 39.2549 37.1885C42.9636 37.1885 45.1786 35.3309 45.6937 32.1318C45.6937 32.0286 45.6422 31.9254 45.5392 31.9254H42.3455C42.2997 31.9279 42.2557 31.9439 42.2191 31.9715C42.1824 31.999 42.1547 32.0368 42.1395 32.0802C41.7274 33.3701 40.9547 33.9377 39.3064 33.9377C36.8853 33.9377 35.6491 32.3382 35.5461 29.7066H45.6937C45.7146 29.7091 45.7358 29.7068 45.7557 29.6999C45.7756 29.693 45.7936 29.6817 45.8085 29.6667C45.8234 29.6518 45.8347 29.6338 45.8416 29.6138C45.8485 29.5939 45.8507 29.5727 45.8483 29.5518C45.9284 28.815 45.9628 28.074 45.9513 27.333C45.8998 22.9987 43.6333 19.8511 39.0488 19.8511ZM35.443 26.9202C35.4946 24.237 36.8338 22.7923 38.9973 22.7923C41.0577 22.7923 42.2425 24.1338 42.2425 26.9202H35.443ZM62.4863 14.1751H59.0866C59.0657 14.1727 59.0445 14.1749 59.0246 14.1818C59.0048 14.1887 58.9867 14.2001 58.9718 14.215C58.9569 14.2299 58.9456 14.248 58.9387 14.2679C58.9319 14.2878 58.9296 14.309 58.9321 14.3299V22.7407C58.5212 21.8395 57.85 21.0825 57.0052 20.5674C56.1604 20.0523 55.1808 19.8028 54.193 19.8511C50.1237 19.8511 47.4451 23.3082 47.4451 28.5198C47.4451 33.7313 50.1237 37.2401 54.193 37.2401C55.1821 37.2955 56.1647 37.049 57.0108 36.533C57.857 36.0171 58.5269 35.2561 58.9321 34.3505V36.6209C58.9296 36.6418 58.9319 36.6631 58.9387 36.683C58.9456 36.7029 58.9569 36.721 58.9718 36.7359C58.9867 36.7508 59.0048 36.7621 59.0246 36.769C59.0445 36.7759 59.0657 36.7782 59.0866 36.7757H62.4863C62.5265 36.7733 62.5644 36.7562 62.5929 36.7276C62.6213 36.6991 62.6384 36.6612 62.6408 36.6209V14.3299C62.6433 14.309 62.641 14.2878 62.6342 14.2679C62.6273 14.248 62.616 14.2299 62.6011 14.215C62.5862 14.2001 62.5681 14.1887 62.5483 14.1818C62.5284 14.1749 62.5072 14.1727 62.4863 14.1751ZM55.0172 33.9377C52.5447 33.9377 51.1539 31.977 51.1539 28.5714C51.1539 25.1658 52.5447 23.2566 55.0172 23.2566C57.4897 23.2566 58.9321 25.2174 58.9321 28.5714C58.9321 31.9254 57.5413 33.9377 55.0172 33.9377ZM19.6292 31.1514H16.4355C16.4011 31.1491 16.3666 31.1542 16.3343 31.1664C16.302 31.1785 16.2727 31.1974 16.2483 31.2219C16.2239 31.2463 16.205 31.2757 16.1929 31.308C16.1808 31.3403 16.1757 31.3749 16.1779 31.4094C15.9204 33.1121 14.9417 33.9893 13.2418 33.9893C10.8208 33.9893 9.63603 32.0802 9.63603 28.5714C9.63603 25.1658 10.9238 23.1534 13.1903 23.1534C15.0447 23.1534 15.9719 24.0822 16.1779 25.9398C16.1827 26.0067 16.2114 26.0695 16.2587 26.1169C16.306 26.1643 16.3688 26.193 16.4355 26.1978H19.6292C19.6678 26.1986 19.7061 26.1907 19.7413 26.1746C19.7764 26.1585 19.8075 26.1348 19.8322 26.105C19.857 26.0753 19.8747 26.0404 19.8841 26.0028C19.8936 25.9653 19.8945 25.9261 19.8867 25.8882C19.7837 22.0699 17.3112 19.9027 13.1388 19.9027C8.65732 19.9027 5.82422 23.2566 5.82422 28.5714C5.82422 33.9893 8.50279 37.2917 13.1388 37.2917C17.1051 37.2917 19.4746 35.2277 19.9382 31.5126C19.9427 31.4242 19.9131 31.3374 19.8556 31.2702C19.7981 31.203 19.717 31.1605 19.6292 31.1514ZM69.3888 20.3155H66.1951C66.1607 20.3132 66.1262 20.3183 66.0939 20.3305C66.0616 20.3426 66.0323 20.3616 66.0079 20.386C65.9835 20.4104 65.9646 20.4398 65.9525 20.4721C65.9404 20.5044 65.9353 20.539 65.9375 20.5735V36.4661C65.9353 36.5006 65.9404 36.5351 65.9525 36.5675C65.9646 36.5998 65.9835 36.6292 66.0079 36.6536C66.0323 36.678 66.0616 36.697 66.0939 36.7091C66.1262 36.7213 66.1607 36.7264 66.1951 36.7241H69.3888C69.4232 36.7264 69.4577 36.7213 69.49 36.7091C69.5223 36.697 69.5516 36.678 69.576 36.6536C69.6003 36.6292 69.6192 36.5998 69.6314 36.5675C69.6435 36.5351 69.6486 36.5006 69.6463 36.4661V20.5735C69.6979 20.4703 69.5433 20.3155 69.3888 20.3155ZM67.8435 14.1235C67.5526 14.1069 67.2615 14.1511 66.9887 14.2535C66.7158 14.3558 66.4673 14.5139 66.2589 14.7179C66.0505 14.9218 65.8868 15.1669 65.7783 15.4378C65.6697 15.7086 65.6187 15.9991 65.6285 16.2907C65.6177 16.585 65.6675 16.8784 65.775 17.1525C65.8825 17.4266 66.0453 17.6755 66.2532 17.8838C66.461 18.092 66.7095 18.255 66.9832 18.3627C67.2568 18.4704 67.5497 18.5203 67.8435 18.5095C68.4241 18.5095 68.9809 18.2785 69.3915 17.8672C69.802 17.4559 70.0327 16.8981 70.0327 16.3165C70.0327 15.7349 69.802 15.1771 69.3915 14.7658C68.9809 14.3546 68.4241 14.1235 67.8435 14.1235ZM80.4121 20.3155H76.7034V14.4331C76.7056 14.3987 76.7005 14.3641 76.6884 14.3318C76.6762 14.2994 76.6573 14.2701 76.633 14.2456C76.6086 14.2212 76.5793 14.2023 76.547 14.1901C76.5147 14.178 76.4802 14.1729 76.4458 14.1751H73.1491C73.1282 14.1727 73.107 14.1749 73.0871 14.1818C73.0673 14.1887 73.0492 14.2001 73.0343 14.215C73.0194 14.2299 73.0081 14.248 73.0012 14.2679C72.9944 14.2878 72.9921 14.309 72.9946 14.3299V32.235C72.9946 35.4857 74.6944 37.2917 77.6821 37.2917C78.4743 37.2882 79.2656 37.2365 80.0516 37.1369C80.1183 37.1321 80.1811 37.1034 80.2284 37.056C80.2757 37.0086 80.3043 36.9457 80.3091 36.8789V34.1441C80.3114 34.1097 80.3063 34.0751 80.2942 34.0428C80.282 34.0104 80.2631 33.9811 80.2387 33.9566C80.2143 33.9322 80.185 33.9133 80.1527 33.9011C80.1205 33.889 80.086 33.8839 80.0516 33.8861H78.7123C77.373 33.8861 76.7549 33.1121 76.7549 31.3578V24.1338H80.4636C80.4981 24.1361 80.5326 24.131 80.5648 24.1188C80.5971 24.1067 80.6264 24.0878 80.6508 24.0633C80.6752 24.0389 80.6941 24.0095 80.7062 23.9772C80.7184 23.9449 80.7235 23.9103 80.7212 23.8758V20.5735C80.7062 20.5019 80.6675 20.4375 80.6114 20.3907C80.5553 20.3439 80.4851 20.3174 80.4121 20.3155Z" fill="#0070F6"/>
<path fill-rule="evenodd" clip-rule="evenodd" d="M86.4901 18.2C86.2605 18.3725 85.9875 18.4775 85.7017 18.5034C85.4159 18.5292 85.1285 18.4748 84.8718 18.3462C84.6151 18.2176 84.3992 18.02 84.2484 17.7755C84.0975 17.5309 84.0176 17.2491 84.0176 16.9616C84.1206 12.9885 84.4297 6.33214 85.4084 4.37136C86.8852 1.4921 90.4008 0.346596 93.2896 1.79138C96.1587 3.24804 97.311 6.75525 95.8651 9.6345C94.8349 11.6469 89.6323 15.7748 86.4901 18.2Z" fill="#F5C946"/>
</g>
<path fill-rule="evenodd" clip-rule="evenodd" d="M63.3157 43.3234H60.1735C60.1391 43.3211 60.1046 43.3262 60.0724 43.3384C60.0401 43.3505 60.0108 43.3695 59.9864 43.3939C59.962 43.4183 59.9431 43.4477 59.931 43.48C59.9188 43.5124 59.9137 43.5469 59.916 43.5814V45.7486C59.5 44.8513 58.8277 44.0979 57.9842 43.5835C57.1406 43.0691 56.1637 42.817 55.177 42.859C51.1076 42.859 48.429 46.3162 48.429 51.5277C48.429 56.7393 51.1076 60.248 55.177 60.248C56.166 60.3035 57.1486 60.0569 57.9948 59.541C58.8409 59.025 59.5109 58.264 59.916 57.3585V59.5772C59.9137 59.6117 59.9188 59.6463 59.931 59.6786C59.9431 59.7109 59.962 59.7403 59.9864 59.7647C60.0108 59.7892 60.0401 59.8081 60.0724 59.8202C60.1046 59.8324 60.1391 59.8375 60.1735 59.8352H63.3157C63.3501 59.8375 63.3846 59.8324 63.4169 59.8202C63.4492 59.8081 63.4785 59.7892 63.5029 59.7647C63.5273 59.7403 63.5462 59.7109 63.5583 59.6786C63.5705 59.6463 63.5756 59.6117 63.5733 59.5772V43.633C63.579 43.558 63.5554 43.4836 63.5073 43.4258C63.4592 43.368 63.3905 43.3312 63.3157 43.3234ZM98.3432 42.9106C93.8102 42.9106 91.1317 46.1614 91.1317 51.6309C91.1317 57.1005 93.8102 60.248 98.5493 60.248C102.258 60.248 104.473 58.3904 104.988 55.1913C104.988 55.0881 104.937 54.9849 104.834 54.9849H101.64C101.594 54.9874 101.55 55.0034 101.513 55.031C101.477 55.0585 101.449 55.0964 101.434 55.1397C101.022 56.4297 100.249 56.9973 98.6008 56.9973C96.1798 56.9973 94.9435 55.3977 94.8404 52.7661H104.988C105.009 52.7686 105.03 52.7663 105.05 52.7594C105.07 52.7525 105.088 52.7412 105.103 52.7263C105.118 52.7114 105.129 52.6933 105.136 52.6734C105.143 52.6534 105.145 52.6322 105.143 52.6113C105.223 51.8746 105.257 51.1335 105.246 50.3925C105.194 46.0582 102.928 42.9106 98.3432 42.9106ZM81.0517 43.696C81.8539 43.1602 82.8018 42.8859 83.7656 42.9106C87.0623 42.9106 88.9682 45.1294 88.9167 49.1025V59.5772C88.919 59.6117 88.9139 59.6463 88.9017 59.6786C88.8896 59.7109 88.8707 59.7403 88.8463 59.7647C88.8219 59.7892 88.7926 59.8081 88.7603 59.8202C88.7281 59.8324 88.6935 59.8375 88.6591 59.8352H85.4655C85.431 59.8375 85.3966 59.8324 85.3643 59.8202C85.332 59.8081 85.3027 59.7892 85.2783 59.7647C85.2539 59.7403 85.235 59.7109 85.2229 59.6786C85.2107 59.6463 85.2056 59.6117 85.2079 59.5772V49.6185C85.2079 47.3482 84.4352 46.1098 82.7354 46.1098C80.7779 46.1098 79.8508 47.6578 79.8508 50.2377V59.5772C79.853 59.6117 79.8479 59.6463 79.8358 59.6786C79.8237 59.7109 79.8047 59.7403 79.7804 59.7647C79.756 59.7892 79.7267 59.8081 79.6944 59.8202C79.6621 59.8324 79.6276 59.8375 79.5932 59.8352H76.3995C76.3651 59.8375 76.3306 59.8324 76.2983 59.8202C76.2661 59.8081 76.2367 59.7892 76.2123 59.7647C76.188 59.7403 76.1691 59.7109 76.1569 59.6786C76.1448 59.6463 76.1397 59.6117 76.142 59.5772V49.6185C76.142 47.3482 75.3693 46.1098 73.6694 46.1098C71.6605 46.1098 70.7848 47.6578 70.7848 50.2377V59.6288C70.7871 59.6633 70.782 59.6979 70.7699 59.7302C70.7577 59.7625 70.7388 59.7919 70.7144 59.8163C70.6901 59.8407 70.6607 59.8597 70.6285 59.8718C70.5962 59.884 70.5617 59.8891 70.5273 59.8868H67.2821C67.2476 59.8891 67.2132 59.884 67.1809 59.8718C67.1486 59.8597 67.1193 59.8407 67.0949 59.8163C67.0705 59.7919 67.0516 59.7625 67.0395 59.7302C67.0273 59.6979 67.0222 59.6633 67.0245 59.6288V43.6846C67.0245 43.4782 67.1275 43.375 67.2821 43.375H70.5273C70.5617 43.3727 70.5962 43.3778 70.6285 43.39C70.6607 43.4021 70.6901 43.4211 70.7144 43.4455C70.7388 43.4699 70.7577 43.4993 70.7699 43.5316C70.782 43.564 70.7871 43.5985 70.7848 43.633V45.697C71.4545 43.891 72.9998 42.9106 75.0087 42.9106C77.1722 42.9106 78.7175 43.9942 79.2841 45.9034C79.6321 45.0027 80.2494 44.2317 81.0517 43.696ZM26.6914 42.9106C22.1584 42.9106 19.4798 46.1614 19.4798 51.6309C19.4798 57.1005 22.1584 60.248 26.8974 60.248C30.6062 60.248 32.8212 58.3904 33.3363 55.1913C33.3363 55.0881 33.2848 54.9849 33.1818 54.9849H29.9881C29.9423 54.9874 29.8983 55.0034 29.8616 55.031C29.825 55.0585 29.7973 55.0964 29.782 55.1397C29.37 56.4297 28.5973 56.9973 26.9489 56.9973C24.5279 56.9973 23.2917 55.3977 23.1886 52.7661H33.3363C33.3572 52.7686 33.3784 52.7663 33.3983 52.7594C33.4181 52.7525 33.4362 52.7412 33.4511 52.7263C33.466 52.7114 33.4773 52.6933 33.4842 52.6734C33.491 52.6534 33.4933 52.6322 33.4908 52.6113C33.5709 51.8746 33.6053 51.1335 33.5939 50.3925C33.4908 46.0582 31.2244 42.9106 26.6914 42.9106ZM40.3418 49.4637L43.381 50.4441C45.6989 51.2181 47.0898 52.7661 47.0898 55.1397C47.0898 58.2872 44.7718 60.248 41.1145 60.248C37.4572 60.248 34.8816 58.184 34.7271 55.0881C34.7194 55.0502 34.7202 55.011 34.7297 54.9734C34.7391 54.9359 34.7569 54.901 34.7816 54.8713C34.8063 54.8415 34.8374 54.8177 34.8726 54.8017C34.9077 54.7856 34.946 54.7777 34.9847 54.7785H38.2299C38.2643 54.7762 38.2988 54.7813 38.3311 54.7935C38.3633 54.8056 38.3926 54.8246 38.417 54.849C38.4414 54.8734 38.4603 54.9028 38.4725 54.9351C38.4846 54.9674 38.4897 55.002 38.4874 55.0365C38.5904 56.2749 39.5691 57.2037 41.166 57.2037C42.5568 57.2037 43.381 56.4813 43.381 55.2429C43.389 54.7933 43.2385 54.3553 42.9558 54.006C42.6731 53.6568 42.2764 53.4187 41.8356 53.3337L38.951 52.4049C36.4785 51.6309 35.1392 50.0313 35.1392 47.6578C35.1392 44.7166 37.5602 42.9106 41.0115 42.9106C44.4627 42.9106 46.7807 44.7166 46.9352 47.7094C46.9464 47.7476 46.9481 47.788 46.94 47.827C46.9319 47.866 46.9144 47.9024 46.8889 47.933C46.8635 47.9636 46.8309 47.9875 46.794 48.0025C46.7572 48.0174 46.7172 48.0231 46.6777 48.0189H43.484C43.4496 48.0212 43.4151 48.0161 43.3828 48.004C43.3505 47.9918 43.3212 47.9729 43.2968 47.9484C43.2724 47.924 43.2535 47.8947 43.2414 47.8623C43.2293 47.83 43.2242 47.7954 43.2264 47.761C43.1234 46.471 42.2992 45.8002 40.9599 45.8002C39.6207 45.8002 38.745 46.471 38.745 47.5546C38.745 48.4317 39.2601 49.0509 40.3418 49.4637ZM14.4833 50.4441L11.4441 49.4637C10.3624 49.0509 9.8473 48.4317 9.8473 47.5546C9.8473 46.471 10.723 45.8002 12.0623 45.8002C13.4016 45.8002 14.2257 46.471 14.3288 47.761C14.3265 47.7954 14.3316 47.83 14.3437 47.8623C14.3558 47.8947 14.3747 47.924 14.3991 47.9484C14.4235 47.9729 14.4528 47.9918 14.4851 48.004C14.5174 48.0161 14.5519 48.0212 14.5863 48.0189H17.78C17.821 48.0204 17.8618 48.0134 17.8999 47.9983C17.9381 47.9833 17.9727 47.9605 18.0017 47.9315C18.0307 47.9024 18.0534 47.8677 18.0685 47.8295C18.0835 47.7913 18.0905 47.7504 18.0891 47.7094C17.9345 44.7166 15.6165 42.9106 12.1138 42.9106C8.71405 42.9106 6.24152 44.7166 6.24152 47.6578C6.24152 50.0313 7.58081 51.6309 10.0533 52.4049L12.938 53.3337C13.3787 53.4187 13.7754 53.6568 14.0581 54.006C14.3408 54.3553 14.4914 54.7933 14.4833 55.2429C14.4833 56.4813 13.6591 57.2037 12.2683 57.2037C10.6715 57.2037 9.69276 56.2749 9.58974 55.0365C9.59201 55.002 9.58691 54.9674 9.57478 54.9351C9.56264 54.9028 9.54374 54.8734 9.51935 54.849C9.49497 54.8246 9.46565 54.8056 9.43337 54.7935C9.40109 54.7813 9.3666 54.7762 9.33219 54.7785H6.08699C6.04836 54.7777 6.01005 54.7856 5.9749 54.8017C5.93974 54.8177 5.90865 54.8415 5.88392 54.8713C5.85918 54.901 5.84144 54.9359 5.83201 54.9734C5.82258 55.011 5.8217 55.0502 5.82943 55.0881C5.98396 58.184 8.55951 60.248 12.2168 60.248C15.8741 60.248 18.1921 58.2872 18.1921 55.1397C18.1921 52.7661 16.8013 51.2181 14.4833 50.4441ZM23.0881 49.9797C23.1397 47.2965 24.4789 45.8518 26.6424 45.8518C28.7028 45.8518 29.8876 47.1933 29.8876 49.9797H23.0881ZM98.3457 45.8518C96.1823 45.8518 94.843 47.2965 94.7915 49.9797H101.591C101.591 47.1933 100.406 45.8518 98.3457 45.8518ZM52.0888 51.5793C52.0888 54.9849 53.4796 56.9456 55.9522 56.9456C58.4247 56.9456 59.867 54.9333 59.867 51.5793C59.867 48.2253 58.4247 46.2645 55.9522 46.2645C53.4796 46.2645 52.0888 48.1737 52.0888 51.5793Z" fill="#0070F6"/>
<defs>
<clipPath id="clip0_2148_26425">
<rect width="99.3432" height="60.4396" fill="white" transform="translate(5.82422 1.17188)"/>
</clipPath>
</defs>
</svg>
